<?xml version="1.0" encoding="utf-8"?>
<!-- Generator: Adobe Illustrator 19.1.0, SVG Export Plug-In . SVG Version: 6.00 Build 0)  -->
<svg version="1.1" id="Layer_1" xmlns="http://www.w3.org/2000/svg" xmlns:xlink="http://www.w3.org/1999/xlink" x="0px" y="0px"
	 width="383px" height="100px" viewBox="0 0 383 100" style="enable-background:new 0 0 383 100;" xml:space="preserve">
<style type="text/css">
	.st0{fill:#00325B;}
	.st1{fill:#FFFFFF;}
</style>
<g>
	<path id="cercle" class="st0" d="M50,98.1c26.6,0,48.1-21.5,48.1-48.1S76.6,1.9,50,1.9S1.9,23.4,1.9,50S23.4,98.1,50,98.1"/>
	<path id="d" class="st1" d="M47.5,74.6c4.6,0,8.8-0.7,12.7-2c3.9-1.3,7.1-3.1,9.7-5.3c2.6-2.2,4.6-4.8,6.1-7.7
		c1.5-2.9,2.2-6,2.2-9.3c0-3.3-0.6-6.3-1.7-9.1c-0.6-1.5-1.5-2.9-2.4-4.2c-1-1.3-2.3-2.4-3.9-3.5s-3.4-2-5.5-2.8
		c-2.1-0.8-4.5-1.4-7.4-1.8c-2.8-0.4-6.8-0.6-11.8-0.6c-5,0-11.5,0.6-19.5,1.9L25.9,36l6.4,1.7v28l-6.6,3.8l-0.8,5.1H47.5z M45.8,36
		c0.1,0,0.2,0,0.4,0c0.2,0,0.2,0,0-0.1c-0.2,0-0.3-0.1-0.3-0.1l0.5,0c4.6,0,8.3,1.3,11.1,3.9c1.3,1.2,2.3,2.5,3.2,4
		c0.9,1.5,1.5,3,1.9,4.5c0.4,1.5,0.6,3.1,0.6,4.8c0,1.7-0.2,3.3-0.6,4.9c-1.6,6.3-6.3,9.5-14.1,9.5h-2.8V36z"/>
</g>
<g>
	<path d="M110,73.2l0.8-5.1l6.6-3.8V36.2l-6.4-1.7l0.3-5.8c8-1.3,14.5-1.9,19.5-1.9c5,0,8.9,0.2,11.8,0.6s5.3,1,7.4,1.8
		c2.1,0.8,3.9,1.7,5.5,2.8c1.6,1.1,2.9,2.3,3.9,3.6c1,1.3,1.8,2.6,2.4,4.2c1.1,2.7,1.7,5.8,1.7,9.1c0,3.3-0.7,6.4-2.2,9.3
		c-1.5,2.9-3.5,5.4-6.1,7.7c-2.6,2.2-5.9,4-9.7,5.3c-3.9,1.3-8.1,2-12.7,2L110,73.2L110,73.2z M131.1,65.7h2.8
		c7.7,0,12.5-3.1,14.1-9.5c0.4-1.6,0.6-3.2,0.6-4.9c0-1.7-0.2-3.2-0.6-4.8c-0.4-1.5-1-3-1.9-4.5c-0.8-1.5-1.9-2.8-3.2-4
		c-2.8-2.6-6.5-3.9-11.2-3.9l-0.5,0c0,0,0.1,0.1,0.3,0.1c0.2,0,0.2,0.1,0,0.1c-0.2,0-0.3,0-0.4,0V65.7z"/>
	<path d="M164.7,55.9c0-2.6,0.6-5,1.7-7.3c1.1-2.3,2.6-4.2,4.4-5.7c3.8-3.1,7.8-4.7,12.2-4.7c11.4,0,17.1,5.7,17.1,17
		c0,5.8-1.6,10.4-4.9,13.9c-3.2,3.5-7.6,5.2-13,5.2c-6.5,0-11.1-1.9-13.9-5.7C165.9,65.2,164.7,60.9,164.7,55.9z M181.8,45.8
		c-1.9,0-3.1,0.6-3.8,2c-0.7,1.3-1,3.8-1,7.4c0,7.9,2.1,11.9,6.3,11.9c1.6,0,2.7-0.5,3.3-1.5c0.6-1,0.9-2.6,0.9-4.7
		c0-2.1,0-3.8-0.1-4.9c-0.1-1.2-0.2-2.4-0.4-3.8c-0.2-1.4-0.5-2.5-0.9-3.3C185.1,46.8,183.7,45.8,181.8,45.8z"/>
	<path d="M199.6,73.2l0.6-6.5l5.6-2V37.3l-6.2-3.8l1.3-6.3l14.3-1l2.2,2.2v36.4l4.1,2.1l-0.9,6.4H199.6z M218.1,58.4l0.4-1.7
		l6.8-11.5l-5-2.1l0.8-5.8h19.8l-1.1,5.6l-5.4,2.3l-6.1,9.5l0.5,0.7c2.2,3.3,4.2,6,6,7.8c1.8,1.9,3.8,3.6,6,5l1.5,1l-1,4l-1.1,0.2
		c-4.4,0.7-7.6,0.6-9.9-0.3c-3-1.2-6.1-4.6-9.4-10.3L218.1,58.4z"/>
	<path d="M242.2,55.9c0-2.6,0.6-5,1.7-7.3c1.1-2.3,2.6-4.2,4.4-5.7c3.8-3.1,7.8-4.7,12.2-4.7c11.4,0,17.1,5.7,17.1,17
		c0,5.8-1.6,10.4-4.9,13.9c-3.2,3.5-7.6,5.2-13,5.2c-6.5,0-11.1-1.9-13.9-5.7C243.4,65.2,242.2,60.9,242.2,55.9z M259.3,45.8
		c-1.9,0-3.1,0.6-3.8,2c-0.7,1.3-1,3.8-1,7.4c0,7.9,2.1,11.9,6.3,11.9c1.6,0,2.7-0.5,3.3-1.5c0.6-1,0.9-2.6,0.9-4.7
		c0-2.1,0-3.8-0.1-4.9c-0.1-1.2-0.2-2.4-0.4-3.8c-0.2-1.4-0.5-2.5-0.9-3.3C262.6,46.8,261.2,45.8,259.3,45.8z"/>
	<path d="M277.8,73.2l0.6-5.8l5.2-2.6V49.6l-5.2-3l1-6.2l14.9-1.1l1.4,1.4l-0.8,3.8l0.5,0.2c1.9-1.9,3.6-3.4,5.3-4.4
		c1.7-1,3.5-1.5,5.4-1.5c4.4,0,7.2,2.1,8.3,6.2l0.5,0.2c1.9-2,3.8-3.6,5.6-4.7c1.8-1.1,3.6-1.7,5.4-1.7c2.8,0,5.1,0.8,6.7,2.6
		c1.6,1.7,2.4,4.4,2.4,8.1v15.2l5.4,2.4l-0.8,6.1h-16.1V57.4c0-2.3-0.3-3.9-0.9-4.9c-0.6-1-1.6-1.5-3.1-1.5s-2.9,0.6-4.3,1.7v12
		l4.8,2.4l-0.8,6.1h-15.4V57.4c0-2.3-0.3-3.9-0.9-4.9c-0.6-1-1.6-1.5-3.1-1.5s-2.9,0.6-4.3,1.8v11.9l4.5,2.3l-1,6.1H277.8z"/>
	<path d="M341.5,66.3c0-3.5,1.5-6.3,4.5-8.6s7.1-3.4,12.4-3.4v-3.5c0-1.7-0.4-3.1-1.4-4.3c-0.9-1.2-1.9-1.7-3-1.7
		c-1.1,0-1.9,0.6-2.3,1.8c-0.4,1.2-0.8,3.2-1,6.3c-4,0-6.4-0.8-7.4-2.4c-0.4-0.6-0.6-1.6-0.6-2.7s0.9-2.6,2.6-4.1
		c1.8-1.6,4-2.8,6.6-3.9c2.7-1,5.4-1.6,8.1-1.6c2.7,0,5,0.9,6.9,2.7c1.8,1.8,2.8,4.7,2.8,8.7v9.8c0,2.2,0.2,3.7,0.6,4.4
		c0.4,0.7,1.4,1.3,3,1.6l1,0.2l-0.9,6.3c-1.2,0.8-2,1.2-2.3,1.3c-0.3,0.1-0.6,0.2-0.9,0.3c-0.3,0.1-0.6,0.2-0.8,0.2
		c-0.2,0-0.5,0.1-0.8,0.1c-0.4,0.1-1.4,0.1-2.8,0.1c-2.7,0-4.8-1.6-6-4.8l-0.2-0.5l-0.5-0.2c-0.5,1.5-1.8,2.7-3.7,3.8
		c-1.9,1.1-4,1.6-6.3,1.6c-2.3,0-4.1-0.6-5.5-1.9C342.2,70.8,341.5,68.9,341.5,66.3z M353.8,60.2c-0.9,0.8-1.4,1.7-1.4,2.6
		s0.3,1.6,0.8,2.1c0.5,0.5,1.3,0.8,2.2,0.8c0.9,0,1.9-0.4,2.9-1.1v-6.1C356.3,58.8,354.8,59.3,353.8,60.2z"/>
</g>
</svg>
