<?xml version="1.0" encoding="utf-8"?>
<!-- Generator: Adobe Illustrator 19.1.0, SVG Export Plug-In . SVG Version: 6.00 Build 0)  -->
<svg version="1.1" id="Layer_1" xmlns="http://www.w3.org/2000/svg" xmlns:xlink="http://www.w3.org/1999/xlink" x="0px" y="0px"
	 width="100px" height="24.5px" viewBox="0 0 100 24.5" style="enable-background:new 0 0 100 24.5;" xml:space="preserve">
<g>
	<path d="M22.6,3.5l-2.7-2.3l-2.2,2.5c-1.5-0.9-3.2-1.4-5-1.4C7.4,2.4,3,6.7,3,12.1c0,2.4,0.8,4.5,2.2,6.2L3,20.9l2.7,2.3L8,20.6
		c1.4,0.8,3,1.2,4.8,1.2c5.4,0,9.8-4.4,9.8-9.8c0-2.3-0.8-4.4-2.1-6L22.6,3.5z M6.5,12.1c0-3.4,2.8-6.2,6.2-6.2
		c0.9,0,1.8,0.2,2.6,0.6l-7.8,9.1C6.9,14.6,6.5,13.4,6.5,12.1z M19,12.1c0,3.4-2.8,6.2-6.2,6.2c-0.9,0-1.7-0.2-2.4-0.5l7.7-9
		C18.7,9.8,19,10.9,19,12.1z"/>
	<g>
		<path d="M80.9,21.3c0.2-0.3,0.4-0.6,0.6-0.9L78.6,19h0c-0.3,0.9-1.5,1.9-3.1,1.9c-2.2,0-3.4-1.1-3.5-3.6h10.4
			c0.3-4.4-2.1-8.5-7-8.5c-4.4,0-7.3,3.3-7.3,7.6c0,2,0.6,3.8,1.6,5.1H80.9z M75.3,11.6c1.9,0,2.8,1.1,3.1,3.1H72
			C72,13.6,72.8,11.6,75.3,11.6z"/>
		<path d="M87.4,21.3v-5.4c0-2.9,0.9-4.1,3.1-4.1c1.8,0,2.5,1.2,2.5,3.5v6h3.9v-6.7c0-3.6-1.1-5.9-5.2-5.9c-1.7,0-3.4,0.8-4.4,2.4
			h-0.1V9h-3.7v12.3H87.4z"/>
		<path d="M57.5,21.3v-5.4c0-2.9,0.9-4.1,3.1-4.1c1.8,0,2.5,1.2,2.5,3.5v6H67v-6.7c0-3.6-1.1-5.9-5.2-5.9c-1.5,0-3.2,0.8-4.2,2.4
			h-0.1V3.6h-3.9v17.7H57.5z"/>
		<rect x="33" y="9" width="3.9" height="12.3"/>
		<rect x="27.1" y="3.6" width="3.9" height="17.7"/>
		<path d="M51.2,21.3c0.3-0.5,0.6-1,0.9-1.6l-3.4-1.5c-0.3,1.5-1.4,2.6-3.1,2.6c-2.5,0-3.3-2.5-3.3-4.5c0-2.1,0.8-4.7,3.4-4.7
			c1.6,0,2.7,0.9,2.9,2.5l0,0.1l3.6-1.4c-0.8-2.8-3.6-4.1-6.5-4.1c-4.7,0-7.3,3.3-7.3,7.8c0,1.9,0.6,3.6,1.6,4.9L51.2,21.3
			L51.2,21.3z"/>
		<rect x="33" y="3.6" width="3.9" height="3.2"/>
	</g>
</g>
</svg>
