<?xml version="1.0" standalone="no"?>
<!DOCTYPE svg PUBLIC "-//W3C//DTD SVG 20010904//EN"
 "http://www.w3.org/TR/2001/REC-SVG-20010904/DTD/svg10.dtd">
<svg version="1.0" xmlns="http://www.w3.org/2000/svg"
 width="192.000000pt" height="192.000000pt" viewBox="0 0 192.000000 192.000000"
 preserveAspectRatio="xMidYMid meet">
<metadata>
Created by potrace 1.11, written by Peter Selinger 2001-2013
</metadata>
<g transform="translate(0.000000,192.000000) scale(0.100000,-0.100000)"
fill="#000000" stroke="none">
<path d="M0 960 l0 -960 960 0 960 0 0 960 0 960 -960 0 -960 0 0 -960z m838
611 c8 -5 12 -17 10 -27 -3 -18 -16 -19 -164 -22 l-161 -2 -12 -26 c-15 -34
-14 -99 3 -133 21 -40 100 -109 151 -131 25 -11 73 -24 107 -31 90 -16 90 -17
86 -41 -3 -21 -7 -23 -62 -20 -66 4 -207 42 -268 73 -61 31 -125 95 -144 145
-12 31 -15 61 -11 103 4 52 3 60 -14 64 -21 6 -26 42 -6 50 21 9 471 7 485 -2z
m200 -216 l2 -220 -29 -35 -30 -35 -1 233 c0 199 -2 232 -15 232 -13 0 -15
-32 -15 -225 0 -132 -4 -225 -9 -225 -5 0 -19 13 -30 29 -20 27 -21 43 -21
250 l0 222 73 -3 72 -3 3 -220z m546 208 c6 -16 -16 -43 -34 -43 -3 0 -4 -29
-2 -64 2 -35 -1 -80 -7 -99 -34 -103 -209 -196 -418 -222 l-53 -7 0 29 c0 28
2 29 68 39 132 21 242 95 277 187 15 41 16 51 4 89 l-14 43 -162 5 c-169 5
-199 13 -173 45 11 13 49 15 260 15 225 0 248 -2 254 -17z m-818 -148 c22 -33
6 -72 -32 -81 -33 -8 -56 5 -68 39 -21 58 66 94 100 42z m478 9 c49 -49 -22
-122 -78 -81 -21 16 -24 60 -6 82 16 20 64 19 84 -1z m-384 -338 c0 -20 -7
-26 -47 -36 -114 -28 -264 -135 -334 -237 -79 -114 -112 -217 -125 -380 l-7
-93 -88 0 -89 0 0 63 c0 193 117 417 283 543 104 79 295 160 385 163 17 1 22
-5 22 -23z m300 8 c86 -20 230 -90 309 -149 76 -58 167 -170 210 -257 40 -82
71 -205 71 -285 l0 -63 -89 0 -88 0 -7 92 c-13 164 -46 267 -125 381 -70 102
-220 209 -333 237 -41 10 -48 16 -48 36 0 29 10 30 100 8z m-167 -46 c18 18
36 32 40 32 4 0 7 -166 7 -370 l0 -370 -75 0 -75 0 0 372 0 372 35 -34 35 -34
33 32z"/>
</g>
</svg>
