<?xml version="1.0" encoding="utf-8"?>
<!-- Generator: Adobe Illustrator 19.0.0, SVG Export Plug-In . SVG Version: 6.00 Build 0)  -->
<svg version="1.1" id="Layer_1" xmlns="http://www.w3.org/2000/svg" xmlns:xlink="http://www.w3.org/1999/xlink" x="0px" y="0px"
	 width="100px" height="80.8px" viewBox="-909 502.2 100 80.8" style="enable-background:new -909 502.2 100 80.8;"
	 xml:space="preserve">
<path d="M-810.4,533.9c-3.3-22.3-19.8-34.5-43.1-30c-23.3,4.5-37.5,6.8-46.1,22.9c-8.6,16.1-14.1,42.8-1.8,50
	c12.2,7.1,30.7,7.1,48.3,2.7c13-3.3,25-11.2,25-11.2S-807.1,556.3-810.4,533.9z M-825.7,556.2c-15.8,12.1-52.8,20.1-65.6,11.6
	c-12.8-8.5-12.2-13.9-12.2-18.8c0-4.9,5.7-17,5.7-17s8.9-15.2,20.3-17.9c11.3-2.7,42.3-7.6,51.9-0.4
	C-816.1,520.9-809.9,544.1-825.7,556.2z M-856,555.9c0,0-6.3,3.6-8.3,3.6c-2.1,0-8.3-2.7-8.7-4.5c-0.3-1.8,6.3-3.1,8.4-4.9
	c2.1-1.8,4.2-0.4,4.2-0.4L-856,555.9z M-830.7,538.2c0,0,6.6-1.8,5.1,3.6c-1.5,5.4-3.6,4-4.8,4c-1.2,0-6.6-3.1-5.1-4.9
	C-834,539.1-830.7,538.2-830.7,538.2 M-844.8,523.5c0,0,2.7,5.4,1.2,7.1c-1.5,1.8-6.9,0.9-11-0.4c-4.2-1.3-2.4-4,0.6-7.6
	C-851,519-844.8,523.5-844.8,523.5 M-884.2,531.6c0,0,9.8,2.2,11,3.6c1.2,1.3-4.5,4.5-8,6.3c-3.6,1.8-5.7-1.3-6.6-4.9
	C-888.7,532.9-884.2,531.6-884.2,531.6"/>
</svg>
