<?xml version="1.0" encoding="utf-8"?>
<!-- Generator: Adobe Illustrator 19.1.0, SVG Export Plug-In . SVG Version: 6.00 Build 0)  -->
<svg version="1.1" id="Layer_1" xmlns="http://www.w3.org/2000/svg" xmlns:xlink="http://www.w3.org/1999/xlink" x="0px" y="0px"
	 width="85.3px" height="100px" viewBox="0 0 85.3 100" style="enable-background:new 0 0 85.3 100;" xml:space="preserve">
<style type="text/css">
	.st0{fill:#231F20;}
</style>
<path class="st0" d="M19.7,47.7h-4.5C16.6,59,22.7,68.8,31.3,74C24.8,67.2,20.7,57.9,19.7,47.7 M45.4,17.5c-1,1.7-2.1,3.1-3.3,4.6
	c-0.8,1-1.8,2.3-2.2,3.6c-0.9,2.8,1,6.1,2.4,8.3c0.3,0.5,1.7,2.6,1.1,3.3c-0.7,0.7-2.8-1.2-3.4-1.8c-3.9-4-7.8-12-3.7-17.4
	c4.7-6.2,6.6-5.8,3.7-14.6c-0.2-0.6-0.4-1.2-0.6-1.8c-0.1-0.3-0.3-0.8-0.1-1c0.2-0.2,0.6,0.2,0.7,0.4c0.4,0.4,0.8,0.8,1.1,1.3
	C44.3,5.9,48.4,12.3,45.4,17.5 M55.3,21.3c-3.8,5.4-9,5.9-3.2,13.3c0.3,0.4,1.7,2,1.2,2.7c-0.6,0.8-2.8-0.9-3.4-1.3
	c-2.7-2.3-6-6.6-5.3-10.9c0.2-1.4,0.8-2.5,1.7-3.5c4.4-4.7,6.6-4.5,3.7-11.8c-0.2-0.5-0.4-1-0.6-1.5c-0.1-0.2-0.3-0.7-0.1-0.9
	c0.2-0.2,0.6,0.1,0.7,0.2c0.4,0.3,0.8,0.7,1.2,1C54,11.4,58.5,16.8,55.3,21.3 M80,42.8c0,15.6-7.6,29.7-19.6,36.5
	c-3.1,1.7-26.7,1.8-29.8,0c-12-6.8-19.6-20.9-19.6-36.5v-0.3H80V42.8z M69.8,84.3c19.7,0,19.7,9.4,0,9.4c-5.1,0-27.1-3.2-34.6-2.3
	c-5.3,0.6-4.3,2.1-7.8,4.8c-7.9,6.1-26.6,3.2-26.6-7.2c0-10.4,18.7-13.3,26.6-7.2c3.5,2.7,2.4,4.2,7.7,4.8
	C42.7,87.5,64.8,84.3,69.8,84.3"/>
</svg>
