<?xml version="1.0" encoding="utf-8"?>
<!-- Generator: Adobe Illustrator 19.0.0, SVG Export Plug-In . SVG Version: 6.00 Build 0)  -->
<svg version="1.1" id="Layer_1" xmlns="http://www.w3.org/2000/svg" xmlns:xlink="http://www.w3.org/1999/xlink" x="0px" y="0px"
	 width="100px" height="82px" viewBox="-909 500 100 82" style="enable-background:new -909 500 100 82;" xml:space="preserve">
<path d="M-813.7,536.5h-3.8h-11v-2c0-2.5-1.8-4.8-4.8-5.8c-2.4-0.9-5.6-0.6-8.1-0.6h-29.3h-9.6c-1.7,0-3.4,0.2-4.9,0.9
	c-2.6,1.2-4.3,3.7-4.3,6v1.5h-8h-5.8c-1.1,0-2.2,0.2-3.1,0.7c-1.3,0.8-2,2.1-2,3.3v17.7v19.4c0,0.7,0,1.4,0.3,2c0.6,1.3,2.3,2,4.1,2
	h5.3h24.8h31.6h23.8h4c0.3,0,0.6,0,0.9,0c2.3-0.1,4.1-2,4.1-3.7v-15.1v-21.1v-1.9C-809.6,538-811.3,536.5-813.7,536.5z M-889,536.2
	c0-0.7,0-1.3,0-2c0-1.7,1.1-3.2,2.9-4.3c2.6-1.5,5.8-1.2,8.9-1.2h29h10.2c1.4,0,2.8,0.1,4.1,0.5c3.1,1,5,3.4,5,5.9v1.3h-1.6v-0.3
	c0-0.7,0-1.3,0-2c0-1.3-0.9-2.6-2.2-3.4c-2.2-1.5-5.6-1.1-8.3-1.1h-29.1h-9.6c-1,0-2,0-3,0.2c-2.7,0.7-4.6,3-4.7,5.1v1.5h-1.6V536.2
	z M-831,536.5h-9.6h-31.5H-887v-2.1c0-0.9,0.3-1.7,1-2.4c0.6-0.6,1.5-1.1,2.5-1.3c0.7-0.2,1.5-0.3,2.3-0.3h2.8h12.6h27h1.5
	c1.9,0,3.7,0.6,4.9,1.8c1.3,1.2,1.3,2.6,1.3,4V536.5z M-810.1,541.7v8.4v22.9v5.4c0,0.9-0.5,1.6-1.6,2.1c-0.6,0.3-1.4,0.4-2.1,0.4
	h-0.3h-1.9h-8.3h-28h-31h-19.3h-1.3c-2.3,0-4.1-1.4-4.1-3.2v-5.4v-22.9v-8.4v-1.5c0-1.7,1.9-2.5,3.8-2.5h45.5h44.3
	c2.3,0,4.2,1.4,4.2,3.1V541.7z M-876.5,557.3c0-0.2,0.5-0.5,0.5-0.6c0,4.5-1.6,9.2-5.2,12.9c-2.8,2.9-7.4,5.1-12.2,4
	c-6.9-1.5-10.4-7.5-11.4-12.5c-1.1-5.7,0.2-12,4.8-16.6c1.8-1.8,4.1-3.4,7-4c2.9-0.6,5.9-0.1,8.4,1.1c6.2,3.2,8.5,9.6,8.5,15.1
	C-876,556.9-876.5,557.2-876.5,557.3c0-3.5-0.9-7.1-3.1-10.2c-1.7-2.4-4.2-4.7-7.6-5.7c-7-2-13.1,2.3-15.5,7c-3,5.8-2.8,13,1.1,18.6
	c1.5,2.2,3.7,4.3,6.7,5.4c2.7,1,5.9,1.1,8.6,0.2C-879,569.9-876.5,562.9-876.5,557.3 M-903.1,557.3c0-0.2,0.5-0.5,0.5-0.6
	c0,2.1,0.4,4.3,1.3,6.3c1.1,2.5,2.9,5,5.8,6.5c2.5,1.3,5.6,1.7,8.4,0.8c3.5-1.2,5.9-3.7,7.1-6.4c1.4-3.2,1.8-6.6,1.1-9.9
	c-0.6-2.8-2-5.7-4.5-7.9c-2-1.7-4.8-3.1-8-2.9c-3.4,0.2-6.2,1.9-8,4c-2.4,2.8-3.2,6.2-3.3,9.5C-902.6,556.9-903.1,557.2-903.1,557.3
	c0-4.3,1.7-9,5.7-12.2c2.1-1.6,4.9-2.8,7.9-2.5c3.2,0.3,5.8,1.9,7.6,3.8c4.5,5,5,12.1,2.1,17.6c-2.2,4-7.1,8.8-13.6,7.1
	c-3.1-0.8-5.5-2.8-7-5C-902.3,563.4-903.1,560.3-903.1,557.3 M-812.9,557.3c0-0.2,0.5-0.5,0.5-0.6c0,4.5-1.6,9.2-5.2,12.9
	c-2.8,2.9-7.4,5.1-12.2,4c-6.9-1.5-10.4-7.5-11.4-12.5c-1.1-5.7,0.2-12,4.8-16.6c1.8-1.8,4.1-3.4,7-4c2.9-0.6,5.9-0.1,8.4,1.1
	c6.2,3.2,8.5,9.6,8.5,15.1C-812.4,556.9-812.9,557.2-812.9,557.3c0-3.5-0.9-7.1-3.1-10.2c-1.7-2.4-4.2-4.7-7.6-5.7
	c-7-2-13.1,2.3-15.5,7c-3,5.8-2.8,13,1.1,18.6c1.5,2.2,3.7,4.3,6.7,5.4c2.7,1,5.9,1.1,8.6,0.2C-815.3,569.9-812.9,562.9-812.9,557.3
	 M-839.5,557.3c0-0.2,0.5-0.5,0.5-0.6c0,2.1,0.4,4.3,1.3,6.3c1.1,2.5,2.9,5,5.8,6.5c2.5,1.3,5.6,1.7,8.4,0.8
	c3.5-1.2,5.9-3.7,7.1-6.4c1.4-3.2,1.8-6.6,1.1-9.9c-0.6-2.8-2-5.7-4.5-7.9c-2-1.7-4.8-3.1-8-2.9c-3.4,0.2-6.2,1.9-8,4
	c-2.4,2.8-3.2,6.2-3.3,9.5C-839,556.9-839.5,557.2-839.5,557.3c0-4.3,1.7-9,5.7-12.2c2.1-1.6,4.9-2.8,7.9-2.5
	c3.2,0.3,5.8,1.9,7.6,3.8c4.5,5,5,12.1,2.1,17.6c-2.2,4-7.1,8.8-13.6,7.1c-3.1-0.8-5.5-2.8-7-5
	C-838.6,563.4-839.4,560.3-839.5,557.3 M-816.5,501.3C-816.5,501.3-816.5,501.3-816.5,501.3c-0.1-0.5-1.1-0.7-1.6-0.8
	c-1.3-0.2-2.6-0.2-3.9-0.1c-1.2,0.1-2.9,0.4-3.1,1.5c-0.1,0.5,1.2,0.7,1.6,0.7c0.5,0.1,1.1,0.1,1.6,0.2v15V534h-1.7
	c-0.1,0-0.5,0.5-0.5,0.6v2.2c0,0,0,0,0,0h6c0.1,0,0.5-0.5,0.5-0.6V534c0,0,0,0,0,0h-2.1v-16.3v-15c0,0,0.1,0,0.1,0
	c1.1-0.1,2.6-0.3,3-1.3C-816.5,501.4-816.5,501.4-816.5,501.3C-816.5,501.3-816.5,501.3-816.5,501.3
	C-816.5,501.3-816.5,501.3-816.5,501.3z M-820.1,534.5c0,0.1-0.1,0.2-0.1,0.2h1.2c0.3,0,0.9-0.1,0.9,0.1v1.4h-4.4h-0.9
	c-0.2,0-0.1-0.1-0.1-0.3v-1.3h1.7c0.1,0,0.5-0.5,0.5-0.6v-16.3v-14.9c0.4,0,0.8,0,1.2,0v2.5V516v18.4v0.2
	C-820.2,534.6-820.1,534.6-820.1,534.5z M-817.3,501.8c-0.3,0.1-0.7,0.2-1,0.2c-0.4,0.1-0.9,0.1-1.4,0.1c-0.2,0-0.3,0-0.5,0
	c-0.3,0-0.6,0-1,0c-0.1,0-0.2,0-0.3,0c-0.2,0-0.3,0-0.5,0c-0.9,0-2.2-0.2-2.6-0.7c0.1,0,0.1-0.1,0.2-0.1c0.3-0.1,0.7-0.2,1-0.2
	c0.9-0.1,1.9-0.2,2.8-0.1c0.7,0,2.9,0.1,3.4,0.7C-817.1,501.8-817.2,501.8-817.3,501.8z M-820,535.5c0,0.3-0.3,0.5-0.8,0.5
	c-0.4,0-0.8-0.2-0.8-0.5s0.3-0.5,0.8-0.5C-820.3,535-820,535.2-820,535.5 M-820.8,536c-0.5,0-0.8-0.2-0.8-0.6c0-0.3,0.4-0.6,0.8-0.6
	c0.5,0,0.8,0.2,0.8,0.6C-819.9,535.8-820.3,536-820.8,536z M-820.8,535.1c-0.4,0-0.7,0.2-0.7,0.4c0,0.2,0.3,0.4,0.7,0.4
	c0.4,0,0.7-0.2,0.7-0.4C-820.1,535.3-820.4,535.1-820.8,535.1z M-843.9,555.3c-0.1,0-0.3,0.6-0.5,0.6h-4.9h-24.1c0,0,0,0,0,0v-15.2
	c0-0.1,0.3-0.6,0.5-0.6h4.9h24.1c0,0,0,0,0,0L-843.9,555.3c0,0.2-0.5,0.5-0.5,0.6v-3.3v-10.9v-1c0,0-0.4,0-0.5,0h-4.4h-24.1
	c0.2-0.2,0.3-0.4,0.5-0.6v3.3v10.9v1c0,0,0.4,0,0.5,0h4.4H-843.9 M-843.9,543.4c-0.1,0-0.3,0.6-0.5,0.6h-4.9h-24.1c0,0,0,0,0,0v-3.3
	c0-0.1,0.3-0.6,0.5-0.6h4.9h24.1c0,0,0,0,0,0L-843.9,543.4c0,0.2-0.5,0.5-0.5,0.6v-2.5c0-0.1,0-0.8,0-0.8h-0.3h-4.6h-24.1
	c0.2-0.2,0.3-0.4,0.5-0.6v2.5c0,0.1,0,0.8,0,0.8h0.3h4.6H-843.9 M-849,547.7c-0.1,0-0.3,0.6-0.5,0.6h-18.8c0,0,0,0,0,0v-2.7
	c0-0.1,0.3-0.6,0.5-0.6h18.8c0,0,0,0,0,0L-849,547.7c0,0.2-0.5,0.5-0.5,0.6v-0.4c0-0.2,0-2.3,0-2.3h-1.1h-6.4h-11.3
	c0.2-0.2,0.3-0.4,0.5-0.6v0.4c0,0.2,0,2.3,0,2.3h1.1h6.4H-849 M-835.3,574.8h-20.4h-25.8h-1.2c-0.1,0-0.5,0.5-0.5,0.6v3.4
	c0,0,0,0,0,0h20.4h25.8h1.2c0.1,0,0.2-0.2,0.3-0.3c0.1-0.1,0.2-0.2,0.2-0.3L-835.3,574.8C-835.3,574.8-835.3,574.8-835.3,574.8z
	 M-876.5,578.2h-5.1c-0.1,0-1.2,0-1.2,0v-2.8h6.2V578.2z M-869.7,578.2h-6.6v-2.8h6.6V578.2z M-862.9,578.2h-6.6v-2.8h6.6V578.2z
	 M-856.1,578.2h-6.6v-2.8h6.6V578.2z M-849.3,578.2h-6.3h-0.3v-2.8h6.6V578.2z M-842.6,578.2h-6.6v-2.8h6.6V578.2z M-835.8,578.2
	h-6.6v-2.8h5.5c0.1,0,1.1,0,1.1,0V578.2z M-878.7,576.8c0,0.4-0.5,0.8-1.1,0.8c-0.6,0-1.1-0.4-1.1-0.8c0-0.4,0.5-0.8,1.1-0.8
	C-879.1,576-878.7,576.4-878.7,576.8z M-871.8,576.8l-2,0.9l0-1.8l0.1,0L-871.8,576.8z M-838,577.5h-0.1l-2.2,0l1.2-1.5L-838,577.5z
	 M-867.9,575.9l1.9,0.9l-2,0.9L-867.9,575.9L-867.9,575.9z M-863.7,576.8l-2,0.9l0-1.8l0.1,0L-863.7,576.8z M-857.2,575.9
	L-857.2,575.9l0,1.8l-0.1,0l-1.9-0.9L-857.2,575.9z M-861.6,576.8l2.1-0.9l0,1.8l-0.1,0L-861.6,576.8z M-853.3,575.8h0.6v1.7h-0.6
	V575.8z M-851.9,575.8v1.7h-0.6v-1.7H-851.9z M-844.8,576v1.3h-1.7V576H-844.8z M-864.6,561.2c-0.4,0.1-0.7,0.2-1,0.4
	c-0.1,0-0.2,0-0.3,0c-1.6,0.4-2.7,1.8-2.8,3c-0.1,1.8,2.3,2.9,4.4,2.4c0.4-0.1,0.8-0.2,1.1-0.5c0,0,0.1,0,0.1,0
	c1.6-0.4,2.7-1.8,2.8-3C-860.3,561.9-862.4,560.7-864.6,561.2z M-865.4,566.5c-1.6-0.2-2.6-1.3-2.7-2.5c-0.1-1.4,1.9-2.1,3.5-1.9
	c1.6,0.2,2.6,1.3,2.7,2.5C-862,566.1-863.7,566.8-865.4,566.5z M-862.2,565.8c0.5-0.5,0.7-1.2,0.8-1.8c0-1.1-0.9-2-2.1-2.3
	c0,0,0.1,0,0.1,0c1.6,0.2,2.6,1.3,2.7,2.5C-860.8,565-861.4,565.6-862.2,565.8z M-854.8,561.2c-0.4,0.1-0.7,0.2-1,0.4
	c-0.1,0-0.2,0-0.3,0c-1.6,0.4-2.7,1.8-2.8,3c-0.1,1.8,2.3,2.9,4.4,2.4c0.4-0.1,0.8-0.2,1.1-0.5c0,0,0.1,0,0.1,0
	c1.6-0.4,2.7-1.8,2.8-3C-850.5,561.9-852.6,560.7-854.8,561.2z M-855.6,566.5c-1.6-0.2-2.6-1.3-2.7-2.5c-0.1-1.4,1.9-2.1,3.5-1.9
	c1.6,0.2,2.6,1.3,2.7,2.5C-852.2,566.1-853.9,566.8-855.6,566.5z M-852.4,565.8c0.5-0.5,0.7-1.2,0.8-1.8c0-1.1-0.9-2-2.1-2.3
	c0,0,0.1,0,0.1,0c1.6,0.2,2.6,1.3,2.7,2.5C-850.9,565-851.5,565.6-852.4,565.8z"/>
</svg>
