<?xml version="1.0" encoding="utf-8"?>
<!-- Generator: Adobe Illustrator 19.0.0, SVG Export Plug-In . SVG Version: 6.00 Build 0)  -->
<svg version="1.1" id="Layer_1" xmlns="http://www.w3.org/2000/svg" xmlns:xlink="http://www.w3.org/1999/xlink" x="0px" y="0px"
	 width="100px" height="64.5px" viewBox="-909 508.8 100 64.5" style="enable-background:new -909 508.8 100 64.5;"
	 xml:space="preserve">
<path d="M-819.8,545.5l10.1-31.2c0.6-1.8-0.4-3.7-2.2-4.3l-2.7-0.9c-1.8-0.6-3.7,0.4-4.3,2.2l-8.9,27.5l-26.4,0.2
	c-1.7,0-3,1.5-3,3.4l0,2.3c0,1.9,1.4,3.4,3,3.4l1.2,0l-6.4,19c-0.1,0.4-0.2,0.9-0.1,1.3H-876V528c0-1.2-1.2-2.1-2.8-2.1
	c-1.5,0-2.8,0.9-2.8,2.1v40.3h-15.3c-1.3,0-2.3,1-2.3,2.3c0,1.3,1,2.3,2.3,2.3h82.6c1.3,0,2.3-1,2.3-2.3c0-1.3-1-2.3-2.3-2.3h-1.9
	c0.1-0.5,0.1-1,0-1.6l-6.6-18.9C-821.5,547.8-820.2,546.9-819.8,545.5z M-821.7,568.3h-32l6.8-20.3l18.1-0.1L-821.7,568.3z
	 M-851.4,523.8h-53.9c-1.8,0-3.2-1.7-3.2-3.7c0-2.1,1.4-3.7,3.2-3.7h53.9c1.8,0,3.2,1.7,3.2,3.7
	C-848.2,522.1-849.6,523.8-851.4,523.8z"/>
</svg>
