<?xml version="1.0" encoding="utf-8"?>
<!-- Generator: Adobe Illustrator 19.0.0, SVG Export Plug-In . SVG Version: 6.00 Build 0)  -->
<svg version="1.1" id="Layer_1" xmlns="http://www.w3.org/2000/svg" xmlns:xlink="http://www.w3.org/1999/xlink" x="0px" y="0px"
	 width="100px" height="95px" viewBox="-909 493.5 100 95" style="enable-background:new -909 493.5 100 95;" xml:space="preserve">
<path d="M-893.8,505.2c1.9,0.2,5.3,2.2,6.1,4.7c0.8,2.6,0.4,3.9-0.9,7c-1.2,2.9-1.4,6-1.5,8.7c-0.1,2.6,0.4,7.1-2.4,9.8
	c-2.8,2.8-6.8,4-11,0.9c-3.7-2.7-5.2-12-4.5-16.9C-907.3,513.5-901.3,504.5-893.8,505.2 M-878.4,511.1c-2.2,1-7.3,4.7-8.2,13.1
	s2.6,17.7,7.4,19.3c4.8,1.6,9.3-2.5,10.2-5.5c1.1-3.5,0.7-7.7,0.7-10.3c0-2.6,0.1-6.1,0.6-9.6c0.6-3.5-1.6-5.6-3.1-6.7
	C-872.4,510.3-875.9,509.9-878.4,511.1 M-858.5,512.7c-2.8,1.8-5.1,3.4-5.8,8.2c-0.3,2.4-0.2,9.3,0,13.5c0.3,4.4,2.4,9.5,7.9,10.1
	c5.7,0.7,9.3-3.4,11.7-10.7s0.6-13.8-0.3-16.5c-0.9-2.6-3-5-5.9-5.8C-853,511-856.5,511.4-858.5,512.7 M-834.4,511.6
	c-1.1-0.1-4,0.1-5.2,2.2c-2,3.4-0.1,5.4,0,10.9c0.1,2.8-0.1,4.3-0.7,7.5c-0.6,3.1,1.3,6.2,5.3,7.3c4.4,1.2,7.1-2,8.6-4.6
	c0.7-1.2,3.2-7.8,0.8-15C-828.1,512.6-832.5,511.8-834.4,511.6 M-824,507.2c-1.9,0.8-3.6,2.9-2.9,4.5c0.6,1.6,2,1.9,3.7,6
	c1.5,3.6,1.8,7.3,1.5,9.8c-0.3,2.8,0.3,5.5,2.8,7s6.4-1,7.7-4c1.5-3.4,2.9-11.2-0.6-17.8C-815.5,506.2-822.9,506.7-824,507.2
	 M-904.5,541.1c-1.1-0.3,1.1,9.5,2.8,12.9c1.7,3.5,4,8.2,10.4,9.9c6.9,1.9,8.4-4.8,8.8-6.8c0.4-2.1,1-9,0.6-9
	c-0.4-0.1-2.2-1.4-3.5-2.8c-1.4-1.4-3.4-5.1-3.5-5.5c-0.2-0.3-1.9-0.7-2.4-0.2c-0.5,0.5-3.4,2.8-6.1,3.3
	C-900.4,543.4-903.6,541.3-904.5,541.1 M-877.3,548.5c-0.8,0.2-0.3,6,0,7.4c0.4,2.4,1.6,6.1,3.4,7.9c3,3,5.9,4.6,10.1,3.3
	c7.7-2.4,8.7-11.1,8.9-15.5c0.1-1.8-1.2-2.9-2.1-2.9c-1,0-3.4,0.2-5.6-1.3c-1.9-1.3-3.6-4.3-4.3-4.3c-0.8,0.1-1.6,1.7-3.5,3.1
	C-873.7,548.8-876.8,548.4-877.3,548.5 M-850.8,549.2c-0.7,0.6-0.9,3.5-0.4,7.2c0.6,3.9,2.6,9,8.5,9.7c6.6,0.8,11.2-5.4,12.6-11.4
	c1.2-4.8,0.3-10.5,0.1-11c-0.2-0.5-3.8,0.4-5.8-0.1c-1.8-0.4-4-1.6-4.9-2.4c-0.7-0.7-2.2-0.8-2.4-0.2c-0.7,1.6-1.9,3.3-3.7,5.1
	C-848.1,547.3-850.1,548.6-850.8,549.2 M-825.4,540.1c-1.9,1.8,0.4,5.4-0.2,11c-0.5,4.6-2.3,7.3-2.6,9.5c-0.4,2.2,4.3,1.6,7-0.4
	c2.7-2,7-7.2,7.6-13c0.8-6.7-2.5-9.3-5.2-9.7C-821.6,537.1-824.3,539.1-825.4,540.1 M-889.5,568.4c-0.8-0.1-1.6,0.3-1.6,1.4
	c0,2,2.1,5.6,4.5,8.5c2.4,2.9,8.3,7.1,14.8,9c4.6,1.3,7.5,1.2,8.1-1.9c0.2-1.2-1.2-3-2.1-5.8c-0.7-2.2-1.2-4.5-1.1-6.1
	c0.1-1.2-1.6-1.8-3.1-2.2c-2.2-0.6-4.2-1.8-6-3.7c-2.6-2.8-2.9-5-3.4-5c-0.5,0-1.3,2.1-3.9,4.1
	C-885.4,568.3-888.7,568.5-889.5,568.4 M-862.9,573.3c-0.1,0.8,0.2,3.5,1.4,6.7c1.2,3.2,4.4,7,7.4,7.8c3,0.8,7.3,0,9.8-3.4
	c2.2-3,3.8-7.6,4.1-12c0.2-2.5-3-3-5.2-3.3c-1.6-0.3-5.5-2.3-7.2-6.3c-0.3-0.6-0.7-0.8-1-0.1c-0.6,1.4-2.1,3.5-3.3,4.6
	c-1,0.9-3.3,2.5-4.4,3.5C-862.8,572-862.9,572.8-862.9,573.3 M-837.1,574.5c-0.4,1.9-0.6,3.1-1.5,5.5c-0.9,2.5-0.5,3.6,0.8,3
	c1.4-0.6,6.2-3.5,10.9-8.5c3-3.2,5.8-8.5,6-9.9c0.2-1.4-2.3,0-3.6,0.3c-1.4,0.3-2.7-0.1-4.4-0.4c-1.9-0.3-3.5,1.6-4.2,2.2
	c-1.2,1-3.3,2.3-3.4,3.6C-836.6,571.5-836.8,572.6-837.1,574.5 M-873.2,494.8c-1.8,0.9-3,2.9-3,5.1c0,2.7,0.7,5.8,2,5.8
	c1.6,0,3.7,0.6,4.8,1.3c2.7,1.6,3.5,3.8,5,4c2.2,0.3,3.5-1.4,4.9-2.9c1.4-1.6,3.3-5.9,2-9.8c-0.7-2.2-3.1-3.3-6-3.9
	C-866.6,493.7-870.8,493.6-873.2,494.8 M-886.9,498.6c-1.7,1.3-3.5,3.9-2.3,4.5s3.3,2.4,3.9,4c0.9,2.4,2.1,1.7,2.8,1.6
	c0.9-0.1,3.7-1.5,4.5-2.8c0.8-1.3-1.2-3.4-1.6-6.5C-880,496.4-882.5,495.4-886.9,498.6 M-844.6,494.4c-4.2-0.2-7.1,1.8-8.3,4
	c-0.9,1.7-2.6,9-0.3,8.9c2,0,3.8,0.2,6,1.2c1.7,0.8,3.4,2.4,4.3,2.6c2.1,0.3,5-2.4,5.6-4.3c0.6-1.9,3-3.7,1.9-7.5
	C-836.5,495.3-843.1,494.4-844.6,494.4 M-833.1,509.1c1.4,0.6,2.2,0.5,2.9,0c1.1-0.7,1.6-2.1,3-3.2c1.3-1,3.3-0.7,3.9-2.2
	c0.5-1.5-0.6-3.4-4.1-4.6c-4.4-1.5-5.2,0.9-5.1,2.5c0.1,1.8-0.8,3.9-1.4,4.5C-834.9,507.2-833.7,508.9-833.1,509.1"/>
</svg>
