<?xml version="1.0" encoding="utf-8"?>
<!-- Generator: Adobe Illustrator 19.0.0, SVG Export Plug-In . SVG Version: 6.00 Build 0)  -->
<svg version="1.1" id="Layer_1" xmlns="http://www.w3.org/2000/svg" xmlns:xlink="http://www.w3.org/1999/xlink" x="0px" y="0px"
	 width="80.2px" height="100px" viewBox="-899.1 491 80.2 100" style="enable-background:new -899.1 491 80.2 100;"
	 xml:space="preserve">
<path d="M-857,494.6c0-0.7-0.2-3.2,1-2.1C-856.1,493.2-856.1,494.3-857,494.6z M-866.2,498.5c-0.6-1,0.1-3-1.5-3
	c-0.2,0.8,0.4,1.4,0.5,2.1C-866.9,498-866.7,498.8-866.2,498.5z M-847,497.4c-0.9-0.5-1.9,0.9-2,1.6
	C-848.2,498.8-847.1,498.1-847,497.4z M-860.1,512.3c-0.4-1.3-2.5-2-2.6-3.6c0.5-3.4,3.5-5.7,3.5-9.2c0-0.5,0.1-1.3-0.5-1.2
	c0.4,4.1-2.9,6.9-3.6,10.6C-862.8,510.3-861.5,511.7-860.1,512.3z M-856.5,510.5c-0.3,0.9-1.2,1.3-2.1,1.2c-0.1,0.3,0.1,0.4,0.3,0.6
	c1,0.5,1.6-0.4,2.3-0.8c0.7-1,0.3-2.2,0.3-3.5c-0.3-2.5-3.8-3.9-3-6.8c-0.6,0.8-0.4,1.8-0.3,2.6
	C-857.6,505.8-855.8,507.7-856.5,510.5z M-872,504.7c0.3,0.1,1.1,0.3,1.1-0.2c-0.3-0.1-0.5-0.3-0.8-0.4c-1.1-0.2-1.7-2.4-2.8-1.2
	C-874,503.8-873,504.5-872,504.7z M-843.9,503.6c-0.5,0.3-1.5,0.3-1.7,0.9c0.9-0.2,2.3,0.2,2.6-0.7
	C-843.2,503.7-843.6,503.6-843.9,503.6z M-859.7,513.4c-0.1,0.3,0.1,0.9,0.6,0.8c0.3-1.2,0.3-2.5,0.3-3.8c-0.1-0.4-0.1-1.1-0.7-1
	C-859.4,510.6-859.6,512.1-859.7,513.4z M-843.5,512.4c-0.7-1-2-1.2-3.1-1.3v0.3c0.9,0.4,1.9,0.7,2.9,1.2
	C-843.7,512.5-843.6,512.4-843.5,512.4z M-873.6,513.5c0.8,0.2,1.5-0.3,2-1c0.1-0.1,0.2-0.4,0-0.5c-0.7,0.2-1.4,0.4-2,0.9
	C-873.8,513.1-873.8,513.4-873.6,513.5z M-824,576.8c-3.9,3.7-8,7.8-13,9.5c-2,1.7-4.8,1.5-7,2.9c-9.7,1.6-18.3,1.8-27.9-0.1
	c-3.3-1.7-7.4-1.6-10.5-3.8c-4.3-1.2-7.6-4.2-11.1-7.4c-5.1-4.4-5.3-11.2-5.1-17.4c1.5-7.5,8.6-14,15.8-15.9
	c1.4-3.6,2.8-7.2,5.6-10.2c3.6-3.3,8.2-4.8,13.2-5.1c-0.6-5.2,0.6-10,0.9-15c0-0.9,1-1,1.6-1.3c0.2,0.1,0.6,0,0.7,0.3
	c0.2,0.6-0.6,0.4-0.8,0.9c0.8,1,2.2,0.6,3.2,0.7c-0.5,0.6-1.9,0.7-2.9,0.5c-0.2-0.1-0.2-0.3-0.5-0.2c-0.1,0.4-0.2,0.8-0.2,1.3
	c-1,4.8-0.9,10.6-0.5,15.8c0.2,0.9,0.2,2,1.2,2.6c0.1-0.4,0.7-0.5,1-0.3c0.1,0.2,0.3,0.3,0.2,0.5c-1.4-0.1-0.1,0.7,0.5,0.4
	c0.9-0.1,1.7-0.6,2.6-0.5c-0.1-0.7,0.8-0.9,1-1.5c0.2-1.2,0.6-2.6-0.1-3.7c-0.2-5.2-0.1-10.3-0.5-15.5c-0.3-0.5-1.7-0.6-1.3-1.5
	c1.1-0.5,2.2,0.7,2.7,1.6c0.3,4.9-0.2,10.4,0.4,15.1c6.5,0.7,14.3,3.5,16.4,10.6c7.9,0.9,15.5,7.9,17.4,15.6
	C-818.5,562.5-819.3,571.3-824,576.8z M-834.8,543.9c-0.8,0.2-1.6,0.6-2.1,1.3c-0.4,0.6-0.7,1.5-0.3,2.2c0.7,1.1,1.9,1.5,3.1,1.6
	c1-0.1,2-0.6,2.4-1.5c0.2-0.8,0.2-1.9-0.4-2.5C-832.7,544.3-833.6,543.7-834.8,543.9z M-837.9,543.6c0.7-0.2,1.6-0.7,1.9-1.3
	c-0.3-0.2-0.8-0.4-1.2-0.2C-837.7,542.2-838.3,543-837.9,543.6z M-841.4,537.7c0.2,0.6,0.5,1.1,0.8,1.6c0.1,0.3,0.2,0.5,0.2,0.8
	c0-0.3-0.1-0.5-0.2-0.8C-840.8,538.7-841,538.2-841.4,537.7z M-851.6,553.6c1-1.4,2.5-2.5,4.2-2.1c-0.1-0.8-0.4-1.5-1-2.1
	c-0.5-0.3-1.3-0.2-1.9-0.3c-3.1,2.4-3.3,6.3-3,10.1c1.2-0.2,2.3-0.7,3.5-1.1c0.5-0.1,3.7-1.9,0.9-0.7c-0.9-0.2-1.9-0.4-2.6-1
	C-852.4,555.8-851.9,554.4-851.6,553.6z M-853.2,547.2c1.1-0.8,2.6-0.8,3.8-1.2c-0.8-0.2-1.5-0.5-2.4-0.5c-0.7,0.5-1.5,0.9-1.9,1.7
	H-853.2z M-847.7,554.1c0.2,0,0.4,0,0.6,0.1c-0.3-0.4,0.1-0.8-0.2-1.1C-847.4,553.4-848,553.7-847.7,554.1z M-843.9,537.1
	c-5.3,3.6-12.3,5.3-19,4.6c0.1,0.4,0.6,0.5,1,0.5C-855.4,541.9-848.7,541.6-843.9,537.1z M-856.2,563c-1.1-0.5-1.9-1.9-3.4-1.6
	c-1.3,0.3-2.7,0.7-3.7,2c-0.7,1.2,0.1,2.6,0.7,3.6c1,0.8,2.1,1.2,3.4,1.1c1.4-0.2,2.9-0.7,3.6-2.1
	C-855.3,564.9-855.5,563.8-856.2,563z M-845,536.2c0.5-0.4,0.8-0.9,0.9-1.5c-0.2-0.2-0.3-0.5-0.4-0.8c-0.3-0.1-1.5-1.1-1.1,0.1
	C-846.7,534.8-845.2,535.5-845,536.2z M-852.1,532.2c0.3,0,0.6,0.8,1,0.6c0.1-0.4-0.2-0.8-0.2-1.2
	C-851.9,530.8-851.9,531.9-852.1,532.2z M-876.6,536.7c1.7,2.3,4.7,2.1,7.1,2.9c-0.2-0.8,0.3-1.2,0.7-1.7c0.3-0.2,0.9-0.4,1.3-0.2
	c-1.5,0.9,0.6,1.1,0.6,1.8c-0.2,0.2-0.4,0.3-0.6,0.4c0.4,0.3,0.7-0.3,1-0.4c0.3-0.6-0.4-1.5,0.1-1.9c0.4,0.3,1,0.7,1.1,1.3
	c-1,2.3,2.3,1,3.2,1.4c-0.3-0.5-0.1-1.2,0.3-1.7c0.4-0.2,0.9-0.5,1.2-0.1c0,0.3-0.4,0.2-0.5,0.5c-0.3,0.2,0,0.5,0.3,0.4
	c0.3,0.3,1,0.4,0.9,1c0.2,0.1,0.4-0.1,0.5-0.2c0.8-0.5-0.2-1.1-0.2-1.8c0.1-0.1,0.1-0.4,0.4-0.3c0.8,0.4,1.5,1.3,1.2,2.1
	c1.3,0.1,2.6-0.1,3.6-0.6c-0.1-0.1-0.1-0.1-0.2-0.2c-0.4-0.8-0.4-1.6,0.3-2.2c0.4-0.1,0.9-0.7,1.3-0.2c0.2,0.1,0.1,0.4-0.1,0.5
	c-1.9-0.1,0.8,2.9-0.6,0.9c0.1-0.2,0.2-0.7,0.6-0.5c0.2,0.4,0.9,0.4,0.7,1c-0.8,0.4,0.3,0.1,0.4-0.1c0.5-0.6-0.1-1.3-0.2-1.9
	c0.1-0.2,0.4-0.1,0.6-0.1c0.7,0.4,1.2,1.1,0.9,1.9c0.8,0.1,1.4-0.4,2.2-0.7c-0.3-0.6-0.8-0.9-0.7-1.6c0.3-0.5,0.7-1.3,1.4-1.3
	c0.1,0.2,0.3,0.2,0.3,0.4c-0.9,1,1.1,0.3,0.8,1.5c0.3-0.3,0.7-0.6,0.5-1c-0.3-0.9-1.2-1-1.9-1.2c-0.8-0.3-1.7-1.2-1.3-2.2
	c0.1-0.3,0.4-0.5,0.8-0.5c0.3,0.2,0.1,1,0.2,1c0.2-0.1,0.4-0.2,0.7-0.2c0.4,0.1,0.9,0.6,0.7,0.9c0.3-0.1,0.1-0.4,0.2-0.7
	c-0.4-1-1.6-0.8-2.4-1.3c-0.4,0-1.2-0.4-1.1,0c0.3,0.5,0.5,1.6-0.4,2c-0.6,0.4-1.1,0.3-1.8,0.2c-1-0.2-1.3-1.3-1-2.2
	c1.9-1.3-0.9-0.8-1.4-0.8c-0.1,0.6-0.2,1.2-0.3,1.8c0.4,0.1,0.7,0.6,1.1,0.9c0.2,0.7-0.2,1.4-0.8,1.8c-2.5,1.5-6,1.7-8.7,0.5
	c-0.7-0.5-1.6-1.3-1.5-2.3c-0.1-0.7,0.8-0.9,1.2-1.4c0.3-0.8-0.5-1.2-0.6-1.8c-0.3,0-0.4-0.3-0.6-0.4c-0.6-0.2-0.7,0.6-1.4,0.6
	c0.6,0.7-0.6,0.7-1,0.9c-0.5,0.7,0.8,0.3,0.7,1c0.3,0,0.5,0.1,0.7-0.1c0.5-0.4-0.2-0.8-0.1-1.4c0.1-0.2,0.3-0.3,0.5-0.3
	c0.9,0.3,0.9,1.2,0.9,2c-0.4,0.9-1.6,1-2.5,0.8c-0.7-0.1-1.2-0.8-1.2-1.5c-0.1-0.6,0.4-0.9,0.9-1.2c-0.9,0.2-1.7,0.4-2.5,0.7
	c0,0-0.1,0-0.1,0c-0.5,0.2-1,0.4-1.5,0.6c0.3,0.3,0.9,0.7,1.6,0.8c0.1-0.4-0.4-0.6-0.4-1c0.1-0.1,0.2-0.2,0.3-0.3c0,0,0.1,0,0.1,0
	c0,0,0.1,0,0.1,0c0.7,0.4,1.3,1.3,1,2.2c-0.3,0.5-0.8,0.8-1.3,1.1c-0.7,0-1.7,0.1-2.2-0.6c-0.4-0.6-0.2-1.4,0.4-1.9
	C-873.7,533.7-876.4,534.3-876.6,536.7z M-874.4,552.1c-1.2,1.8-0.8,4.5,0.4,6c2.4,0.5,4.8,1.3,7.3,1.3c-0.5-1.6-0.3-3.5-0.6-5.2
	c-0.4-0.1-0.7,0.1-1,0.2c-2.8,1.5,1.5,0.4,1.2,2.1c-0.4,0.7-1.2,1-1.9,1.5c-0.9,0.4-2.1,0.5-3.1-0.1c-0.7-0.6-1-1.3-1-2.1
	c0.2-1.3,1.6-2,2.5-2.8c0.9-0.5,2.1-0.6,3,0c-0.4-1.6-1.7-3.2-3.5-3.4C-872.6,549.7-873.5,551.1-874.4,552.1z M-869.6,546.6
	c0.7-0.2,1.7,0.2,2.2-0.1c-1.3-1.8-3.8-0.5-5.2,0.6C-871.6,546.8-870.5,546.8-869.6,546.6z M-890,552.5c0.9,0.4,2,0.2,3,0.1
	c0.9-0.4,1.5-1.3,1.5-2.4c-0.6-1.7-2.5-1.5-3.6-0.7c0.5,0.2,0.8,0.8,0.7,1.5c0.4,0.1,0.7-0.2,1.1-0.1c0.3,0.1,0.7,0.2,0.7,0.6
	c-0.8,0.8-1.8,1.3-2.9,1c-0.8-0.2-0.8-1-0.9-1.7C-890.6,551.4-890.6,552.1-890,552.5z M-896.4,561.1c-0.2-0.3-0.5-2.6-0.8-0.7
	c-0.4,0.8-0.2,9.6,0.2,2.6C-896.9,562.3-896.7,561.7-896.4,561.1z M-889,580.2c-0.8-2.7-1.3-5.7-1.3-8.7c-0.3-1.3,0.2-2.7-0.1-4
	c-1.6-1.9-1.3,1.3-1.8,2.1c-0.9,3.3,1.2,6.2,1.2,9.1C-890.3,579.3-889.5,579.4-889,580.2z M-878.4,585.6c-2.1-3.8-1.2-8.7-1.6-13.2
	c0.1-0.2-0.1-0.3-0.2-0.4c-0.6,0.1-1.6-1.1-1.7,0c-0.2,4.3-0.2,8.3,1.3,12.1C-880.8,585.4-879.1,585.1-878.4,585.6z M-864.9,588.5
	c-1.2-4.8-1-9.3-1.6-14.2c-0.8,0.1-1.6-0.2-2.5-0.1c-0.1,4.3,0.2,8.5,0.8,12.6C-868,588.5-866,588.3-864.9,588.5z M-850.8,588.7
	c-0.5-4.8,0.3-10.1-1.1-14.6c0.3-1.2-1.3-0.3-2-0.4c0.5,4.9-0.1,10.7,0.5,15.4C-852.5,589-851.5,589-850.8,588.7z M-837.8,570
	c-0.1-1.8-1.5,0.3-2.4,0.2c1.4,5.2,0.7,10.4,0.3,15.7c0.7-0.2,1.3-0.4,1.9-0.6C-837.8,580.2-836.7,575.2-837.8,570z M-827.2,562.7
	c-0.8-2.1-1.7,0.5-2.6,0.8c2.1,5.1,0.9,10.9,0.3,16.3c0.8-0.6,1.7-1.1,2.2-1.9C-827.1,573-825.9,567.8-827.2,562.7z M-830.9,544.2
	c-0.1,0.1-0.2,0.2-0.2,0.3c0.9,0.8,0.7,1.7,1,2.7c-0.1,1.8-1.9,2.6-3.4,3.1c-1.5-0.2-3.1-0.3-4.1-1.4c-0.8-0.3-1.2,0.5-1.7,0.8
	c-2.3,6.3-9.1,9.7-15.1,11.3c-0.4,0.2-0.8,0.4-0.9,0.8c0.7,1.2,1.4,2.4,1.2,4c-0.4,1.9-2.4,3.4-4.2,3.7c-2.1,0.2-4-0.5-5.4-2
	c-0.6-1.5-1.9-3.6-0.4-5.2c0.8-1-0.6-0.4-0.9-1c-6.6-0.7-14.1-2.1-17.7-8.9c-0.5-1.8,0.3-4.2-1.1-5.7c-0.6,0-1.2-0.1-1.7,0.4
	c-0.4,1.4,1.6,2,1.5,3.5c-0.2,0.9-0.4,1.9-1.3,2.5c-1.1,1.1-2.7,1.1-4.2,0.9c-1.1-0.2-1.9-1.3-2.5-2.1c-2.1,2.1-4.7,4.7-3.3,8.1
	c3,6.8,10.8,9.1,17.2,11.2c13.4,2.9,29.6,2.4,41.2-4.2c5-3.2,11.7-7.6,12.3-14.1C-824.1,548.9-828,546.1-830.9,544.2z M-823.4,553.1
	v0.7c3.1,4.7,2.1,10.7,1.6,16C-820,564.4-820.9,558-823.4,553.1z M-861.2,533.9c0.3,0.2,0.7,0.1,0.8-0.3c-1.3-5.3-1-11.8-0.2-17.2
	c-0.2-0.2-0.3-0.3-0.5-0.5c-0.5-0.2-0.7,0.4-0.9,0.4C-862.1,522.3-863,528.3-861.2,533.9z M-849.4,518.9c-0.1-0.5-0.3-1-0.6-1.5
	c-1.6-2.3-0.3,1.2,0,1.6C-849.8,519.1-849.5,519.1-849.4,518.9z M-867.3,519.6c0.6,0.5,0.9-0.4,1-0.8
	C-864.6,515.7-867.9,518.8-867.3,519.6z M-873.2,538.4c1,0.3,2.3,0.1,2.7-1c0.2-0.6,0.2-1.4-0.4-1.9c-1.7-0.3,0.2,0.8-0.4,1.5
	c-0.3,0.3-0.7,0.8-1.2,0.5c0.9-0.7-0.7-1.3-1-1.5c0.3-0.7,1-0.6,1.6-0.7c-0.3-0.3-0.7-0.3-1.1-0.3c-0.6,0.2-0.9,0.7-1.3,1.2
	C-874.3,537-874.1,537.9-873.2,538.4z M-835.6,548.3c0.7,0.6,1.5-0.4,2.3-0.1c0.3-0.4,1-0.7,1-1.3c-0.6-0.7-1.4-0.1-2.1-0.1
	c-0.4-0.2-0.3-0.6-0.5-0.9c-0.6-0.2-1.3-0.6-1.8,0.1C-837,546.9-836.4,547.8-835.6,548.3z M-832.3,552.5c0.9,1,1.5,2.4,1,3.7
	c-0.9,2-3,2.7-4.9,2.9c-1.7-0.1-3.2-1.1-3.7-2.7c-0.4-1.6,1-2.7,1.9-3.8C-836.4,551.1-834.1,551.5-832.3,552.5z M-832.5,554.6
	c-0.1-2.3-2.2-1.2-3.6-1.8c-1.6,0.3-2.4,2-2.7,3.5c0.7,0.9,1.6,1.9,3.1,1.5C-834.3,557.2-832.4,556.5-832.5,554.6z M-836.2,555.5
	c-0.2-0.7-1-0.9-1.5-0.6c-0.4,0.2-0.5,0.8-0.3,1.3c0.3,0.9,1.3,1.2,2.1,1.3c1.1,0.1,1.9-0.7,2.6-1.5
	C-833.2,554.2-835,556.1-836.2,555.5z M-882.3,557.8c0.4,1.5,0.2,3.2-0.8,4.3c-1.3,1.2-3.4,1.3-4.9,0.7c-1.3-0.8-2.6-1.9-2.7-3.5
	c0.1-1.2,0.4-2.3,1.3-3c1-0.9,2.3-1.5,3.6-1.1c0.3,0.4,0.6,0.4,0.9,0.2C-883.7,555.5-882.9,556.8-882.3,557.8z M-883.5,558.1
	c-0.5-1.5-2-2.1-3.5-1.7c-1.2,0.5-2.6,1.9-2.3,3.5c0.2,1,1.4,1.5,2.2,2c1,0.3,2.2,0,3.1-0.7C-883.5,560.3-883.3,559.2-883.5,558.1z
	 M-886,559.9c-0.7-0.3-0.4-0.9-0.5-1.5c-0.6-0.2-1.7-1.9-2.1-0.4c-0.3,0.7-0.7,1.8,0,2.4c0.7,0.6,1.4,0.9,2.4,0.9
	c0.5,0,1.2-0.3,1.2-1C-885.3,559.9-885.7,560-886,559.9z M-840.4,561.7c0.7,1.5-0.3,2.7-1.2,3.8c-1.2,0.8-2.6,1.4-4.2,1
	c-1.7-0.4-3-1.9-3.4-3.6c-0.2-1.2,0.2-2.2,0.9-2.9c0.8-0.8,1.8-1.3,2.9-1.4C-843.2,558.6-841.3,559.9-840.4,561.7z M-841.6,561.9
	c-0.7-1.4-2.1-1.8-3.5-2c-1,0.1-1.8,0.9-2.5,1.6c-0.4,0.9-0.2,2,0.4,2.8c0.8,0.6,1.5,1.3,2.7,1c1-0.1,1.8-0.7,2.5-1.5
	C-841.6,563.3-841.4,562.6-841.6,561.9z M-872.2,560.9c1.4,1.2,2.1,3,2,4.7c-0.4,0.9-0.7,2.3-1.9,2.5c-1.8,0.6-3.6,0.2-5.2-0.4
	c-1.2-0.8-2.2-1.9-2.2-3.3c0-1.5,0.4-2.9,1.9-3.6c1.3-0.6,3.1-1.2,4.3,0C-872.9,560.6-872.6,560.9-872.2,560.9z M-871.4,565
	c-0.2-1.4-0.7-2.7-2-3.6c-1.9-0.6-3.8,0.3-4.7,2c-0.2,0.8-0.2,1.9,0.4,2.5c1.2,1.3,3,1.3,4.7,1.1
	C-872.1,566.7-871.5,565.8-871.4,565z M-844.9,563c-0.3,0.1-0.4-0.3-0.4-0.6c-0.4-0.9-0.9-0.3-1.6-0.1c-0.1,0.7,0.1,1.7,0.6,2.3
	c1.3,0.7,2.5-0.4,3.7-0.9C-842.7,562.6-844.2,563.4-844.9,563z M-875.8,563.7c-0.2-0.9-1.8-1-2-0.2c0,0.5-0.1,0.9,0.1,1.5
	c0.3,2,2.5,1.4,3.7,1.8c0.5-0.2,1.2-0.4,1.3-1c-0.7-0.7-1.7-1.2-2.7-1.1C-875.9,564.7-876,564.1-875.8,563.7z M-862.6,565
	c-0.1,0.7,0.2,1.4,0.6,1.9c0.8,0.6,1.6,1,2.7,0.8c1-0.6,2.9-0.4,2.9-2.1c-0.2-0.2-0.4-0.7-0.8-0.6c-0.3,0.6-0.8,0.9-1.5,0.9
	c-0.8-0.3-1.7-0.5-2.1-1.2C-861.4,564.2-862.4,564.4-862.6,565z"/>
</svg>
