<?xml version="1.0" encoding="utf-8"?>
<!-- Generator: Adobe Illustrator 19.0.0, SVG Export Plug-In . SVG Version: 6.00 Build 0)  -->
<svg version="1.1" id="Layer_1" xmlns="http://www.w3.org/2000/svg" xmlns:xlink="http://www.w3.org/1999/xlink" x="0px" y="0px"
	 width="82.7px" height="100px" viewBox="-900.5 491 82.7 100" style="enable-background:new -900.5 491 82.7 100;"
	 xml:space="preserve">
<path d="M-846.5,521c0.2,0.6-7-5.5-17.3-4.3c-0.4,0.1-0.7,0.1-1,0.1c-1.8,0.3-3,1.3-3.4,1.7c-7.7,7.5-1.6,43.6-0.4,54.8
	c0.2,1.5,0.4,2.8,0.8,4c1.6,4.5,5.8,7,9.9,8.7c0.3,0.1-1.5,0.1-2.3,0.1c-1.2,0-2.5-0.1-3.9-0.2c-1.5-0.2-2.8-0.6-3.8-1.2
	c0,0,0,0,0,0c-3.3-1.6-5.5-5.2-6.2-11.7c-1.1-10.6-5.2-37.9,0.9-53.2c0.1-0.3,0.3-0.6,0.4-1c-6.1-4.6-13.9-3.6-16.6-0.3
	c-6.7,8,3.1,42,5.6,52.5c1,4.3,2.4,7.3,3.9,8.8c-0.8,0.5-1.8,1-2.8,1c-2.2,0-5-3.5-6.4-9.6c-2.3-9.9-9.5-35.3-5.2-50.5
	c1.6-7.4,13.3-13.7,22.4-3.2c0.2-0.2,0.4-0.5,0.6-0.7c1.4-1.6,3.6-2.9,6-3.6c0,0,0.1,0,0.1,0l0,0c6.5-2,15-0.7,18.4,6.3
	c3.6-6.6,18.4-8.9,21.9,3C-832.1,516.1-837.7,515.8-846.5,521 M-837.3,581.5c-2.2,0.2-5.5-1.7-5.5-1.7l1-2.1l6.6,3.4
	C-835.8,581.3-836.5,581.4-837.3,581.5 M-826.8,511.3c-8.9-4.5-20.7-1.4-20.9-1.5c-1-0.6-2.1-1.2-3.7-1.7c-1-5.3,1.6-10.6,1.3-10.9
	c-2.2-3.2-7.1-5.8-9.5-4.5c-1.8,1-4.2,9.4-5.2,13.7c-5.2,0.2-8.5,1.5-8.5,1.5s-3.3-2.2-9.6-2.1c-25,0.9-15.7,45.5-10.5,67.4
	c5.2,21.9,17.7,10.4,17.7,10.4s1,3.9,10.8,6.8c16.4,1.9,20.8-6.2,20.8-6.2s6.4,3.7,11.6,0.8c5.2-2.9,3.4-7.9,11.1-38.7
	C-813.7,515.3-824.8,512.8-826.8,511.3"/>
</svg>
