<?xml version="1.0" encoding="utf-8"?>
<!-- Generator: Adobe Illustrator 19.0.0, SVG Export Plug-In . SVG Version: 6.00 Build 0)  -->
<svg version="1.1" id="Layer_1" xmlns="http://www.w3.org/2000/svg" xmlns:xlink="http://www.w3.org/1999/xlink" x="0px" y="0px"
	 width="100px" height="60.5px" viewBox="-909 512.5 100 60.5" style="enable-background:new -909 512.5 100 60.5;"
	 xml:space="preserve">
<path d="M-844.9,535.9C-844.9,535.9-844.9,535.9-844.9,535.9l-3.4,0.1c0-0.2,0-0.4,0-0.6c0.6-3.8,2-6.1,3.5-7.4
	c1.5-1.3,3-1.5,3.7-1.5c0,0,0,0,0.1,0h0c0.2,0.7,0.8,2.2,1.7,3.8c0.9,1.6,2,3.5,3.6,5h-7v-4.5C-843.5,531.4-844.4,532.9-844.9,535.9
	 M-837.8,529.4c0.3,0.6,0.6,1.1,1,1.7c0.2-0.3,0.5-0.8,0.8-1.4c0.5-0.9,1.2-2,1.9-3.4h-5.1c0,0.1,0.1,0.1,0.1,0.2
	C-838.9,527.3-838.4,528.3-837.8,529.4 M-835.7,532.6l-0.2-0.1c0.8,1,1.7,2,2.7,2.7h2.1v-4.5c0.7,0.7,1.6,2.2,2.1,5.2h3.5
	c0-0.2,0-0.3,0-0.5c-0.6-3.9-2-6.2-3.5-7.5c-1.2-1.1-2.5-1.4-3.2-1.5C-834.2,530.2-835.7,532.6-835.7,532.6 M-839.9,513.5
	c-0.3,0-0.5,0.2-0.5,0.5v3.5c0,0,0,0,0.1,0c0.2,0,0.5,0.1,0.8,0.1c0.7,0.1,1.7,0.1,2.6,0.1c1.3,0,2.6-0.1,3.2-0.2
	c0.1,0,0.2,0,0.3-0.1v-3.5c0-0.3-0.2-0.5-0.5-0.5H-839.9 M-836.9,525.1c-2.7,0-4.9-2.2-4.9-4.9c0-0.9,0.3-1.8,0.7-2.5c0,0,0,0,0,0
	v-3.7c0-0.7,0.5-1.2,1.2-1.2h6c0.7,0,1.2,0.5,1.2,1.2v3.7c0,0,0,0,0,0c0.4,0.7,0.7,1.6,0.7,2.5C-832,522.9-834.2,525.1-836.9,525.1
	 M-908.3,555.3h5.6v-2.9h-5.6V555.3z M-849.2,551h39.5v-2.9h-39.5V551z M-849.2,543.4h39.5v-1.3h-39.5V543.4z M-908.3,543.4h4.8
	v-1.3h-4.8V543.4z M-878.2,551h4v-2.9h-4V551z M-885.1,531.4c0-2.7-2.2-4.9-4.9-4.9s-4.9,2.2-4.9,4.9c0,1.1,0.4,2.2,1,3h7.8
	C-885.5,533.5-885.1,532.5-885.1,531.4 M-882.5,536.4c-0.4-0.4-0.8-0.8-1.3-1.1c-0.5-0.3-1.1-0.6-1.8-0.6c0,0,0,0-0.1,0
	c-0.1,0-0.1,0-0.2,0h-8.4c-0.1,0-0.1,0-0.2,0c0,0,0,0-0.1,0c-0.7,0-1.3,0.3-1.8,0.6c-0.8,0.5-1.5,1.2-2.1,2
	c-1.5,1.9-2.8,4.3-3.2,5.1c-0.1,0.2-0.1,0.3-0.1,0.3c0,0,0,0,0,0c0,0,0,0.1,0,0.1c0,0,0,0.1,0,0.1c0,0,0,0.1,0,0.1c0,0,0,0.1,0,0.1
	c0,0,0,0,0,0.1c0,0,0,0.1,0,0.1c0,0,0,0,0,0.1c0,0,0,0.1,0,0.1c0,0,0,0,0,0c0,0,0,0,0,0c0,0,0,0.1,0,0.1c0,0,0,0,0,0.1
	c0,0,0,0.1,0,0.1c0,0,0,0.1,0,0.1c0,0,0,0.1,0,0.1c0,0,0,0.1,0,0.1c0,0,0,0,0,0.1c0,0,0,0.1,0,0.1c0,0,0,0,0,0.1c0,0,0,0.1,0,0.1
	c0,0,0,0,0,0.1c0,0,0,0,0,0.1c0,0,0,0.1,0.1,0.1c0,0,0,0,0,0.1c0,0,0,0,0.1,0.1c0,0,0,0,0,0c0,0,0,0,0.1,0.1c0,0,0,0,0.1,0.1
	c0,0,0,0,0.1,0.1c0,0,0.1,0,0.1,0.1c0,0,0,0,0.1,0c0,0,0.1,0,0.1,0.1c0,0,0,0,0,0c0,0,0,0,0,0c0,0,0.1,0,0.1,0.1c0,0,0,0,0,0
	c0,0,0.1,0,0.1,0c0,0,0,0,0.1,0c0,0,0.1,0,0.1,0c0,0,0,0,0.1,0c0,0,0.1,0,0.1,0c0,0,0,0,0,0c0,0,0,0,0,0h2.3v-4.9v-0.7h0.7h14.3h0.7
	v0.7v4.9h2.2h0c0,0,0,0,0.1,0c0,0,0.1,0,0.1,0c0,0,0,0,0.1,0c0,0,0.1,0,0.1,0c0,0,0,0,0.1,0c0,0,0.1,0,0.1,0c0,0,0,0,0.1,0
	c0,0,0.1,0,0.1-0.1c0,0,0,0,0,0c0,0,0,0,0,0c0,0,0.1,0,0.1-0.1c0,0,0,0,0.1,0c0,0,0,0,0.1-0.1c0,0,0,0,0.1-0.1c0,0,0,0,0.1,0
	c0,0,0.1,0,0.1-0.1c0,0,0,0,0,0c0,0,0-0.1,0.1-0.1c0,0,0,0,0-0.1c0,0,0-0.1,0.1-0.1c0,0,0,0,0-0.1c0,0,0-0.1,0-0.1c0,0,0-0.1,0-0.1
	c0,0,0,0,0-0.1c0,0,0-0.1,0-0.1c0,0,0,0,0-0.1c0,0,0-0.1,0-0.1c0,0,0-0.1,0-0.1c0,0,0-0.1,0-0.1c0,0,0-0.1,0-0.1c0,0,0,0,0-0.1
	c0,0,0-0.1,0-0.1c0,0,0,0,0,0c0,0,0,0,0,0c0,0,0-0.1,0-0.1c0,0,0,0,0-0.1c0,0,0-0.1,0-0.1c0,0,0,0,0-0.1c0,0,0-0.1,0-0.1
	c0,0,0-0.1,0-0.1c0,0,0-0.1,0-0.1c0,0,0-0.1,0-0.1c0,0,0,0,0,0c0,0,0-0.1-0.1-0.2c-0.3-0.5-1-2-2-3.5
	C-881,538.2-881.7,537.2-882.5,536.4 M-894.4,566c1.4-0.4,2.2-1.8,1.9-3.2l-1.5-6.9h-0.4V566z M-899.8,549.9
	c-0.5,0.6-0.7,1.5-0.5,2.3l2.6,11.6v-14.9C-898.6,548.9-899.3,549.3-899.8,549.9 M-886,555.9l-1.5,6.9c-0.3,1.4,0.6,2.9,2,3.2v-10.2
	H-886z M-879.6,552.2c0.2-0.8,0-1.7-0.5-2.3c-0.5-0.6-1.2-1-2-1v14.8L-879.6,552.2z M-897.1,540.3v32.2h2.1v-17.3h10.1v17.3h2.1
	v-32.2H-897.1z M-857.5,531.4c0-2.7-2.2-4.9-4.9-4.9c-2.7,0-4.9,2.2-4.9,4.9c0,1.1,0.4,2.2,1,3h7.8
	C-857.9,533.5-857.5,532.5-857.5,531.4 M-854.9,536.4c-0.4-0.4-0.8-0.8-1.3-1.1c-0.5-0.3-1.1-0.6-1.8-0.6c0,0,0,0-0.1,0
	c-0.1,0-0.1,0-0.2,0h-8.4c-0.1,0-0.1,0-0.2,0c0,0,0,0-0.1,0c-0.7,0-1.3,0.3-1.8,0.6c-0.8,0.5-1.5,1.2-2.1,2
	c-1.5,1.9-2.8,4.3-3.2,5.1c-0.1,0.2-0.1,0.3-0.1,0.3c0,0,0,0,0,0c0,0,0,0.1,0,0.1c0,0,0,0.1,0,0.1c0,0,0,0.1,0,0.1c0,0,0,0.1,0,0.1
	c0,0,0,0,0,0.1c0,0,0,0.1,0,0.1c0,0,0,0,0,0.1c0,0,0,0.1,0,0.1c0,0,0,0,0,0c0,0,0,0,0,0c0,0,0,0.1,0,0.1c0,0,0,0,0,0.1
	c0,0,0,0.1,0,0.1c0,0,0,0.1,0,0.1c0,0,0,0,0,0.1c0,0,0,0.1,0,0.1c0,0,0,0,0,0.1c0,0,0,0.1,0,0.1c0,0,0,0,0,0.1c0,0,0,0.1,0,0.1
	c0,0,0,0,0,0.1c0,0,0,0,0,0.1c0,0,0,0.1,0.1,0.1c0,0,0,0,0,0.1c0,0,0,0,0.1,0.1c0,0,0,0,0,0c0,0,0,0,0.1,0.1c0,0,0,0,0.1,0
	c0,0,0,0,0.1,0.1c0,0,0.1,0,0.1,0.1c0,0,0,0,0.1,0c0,0,0.1,0,0.1,0.1c0,0,0,0,0,0c0,0,0,0,0,0c0,0,0.1,0,0.1,0.1c0,0,0,0,0.1,0
	c0,0,0.1,0,0.1,0c0,0,0,0,0.1,0c0,0,0.1,0,0.1,0c0,0,0,0,0.1,0c0,0,0.1,0,0.1,0c0,0,0,0,0.1,0c0,0,0,0,0,0h2.3v-4.9v-0.7h0.7h14.3
	h0.7v0.7v4.9h2.2h0c0,0,0,0,0.1,0c0,0,0.1,0,0.1,0c0,0,0,0,0.1,0c0,0,0.1,0,0.1,0c0,0,0,0,0.1,0c0,0,0.1,0,0.1,0c0,0,0,0,0.1,0
	c0,0,0.1,0,0.1-0.1c0,0,0,0,0,0c0,0,0,0,0,0c0,0,0.1,0,0.1-0.1c0,0,0,0,0.1,0c0,0,0.1,0,0.1-0.1c0,0,0,0,0.1,0c0,0,0,0,0.1-0.1
	c0,0,0,0,0.1-0.1c0,0,0,0,0.1-0.1c0,0,0,0,0.1-0.1c0,0,0,0,0-0.1c0,0,0,0,0.1-0.1c0,0,0-0.1,0-0.1c0,0,0,0,0-0.1c0,0,0-0.1,0-0.1
	c0,0,0,0,0-0.1c0,0,0-0.1,0-0.1c0,0,0,0,0-0.1c0,0,0-0.1,0-0.1c0,0,0,0,0-0.1c0,0,0-0.1,0-0.1c0,0,0-0.1,0-0.1c0,0,0-0.1,0-0.1
	c0,0,0-0.1,0-0.1c0,0,0,0,0,0c0,0,0,0,0,0c0,0,0-0.1,0-0.1c0,0,0,0,0-0.1c0,0,0-0.1,0-0.1c0,0,0-0.1,0-0.1c0,0,0-0.1,0-0.1
	c0,0,0-0.1,0-0.1c0,0,0,0,0-0.1c0,0,0-0.1,0-0.1c0,0,0,0,0,0c0,0,0-0.1-0.1-0.2c-0.3-0.5-1-2-2-3.5
	C-853.4,538.2-854.1,537.2-854.9,536.4 M-866.8,566c1.4-0.4,2.2-1.8,1.9-3.2l-1.5-6.9h-0.4V566z M-872.3,549.9
	c-0.5,0.6-0.7,1.5-0.5,2.3l2.6,11.6v-14.9C-871,548.9-871.8,549.3-872.3,549.9 M-858.4,555.9l-1.5,6.9c-0.3,1.4,0.6,2.9,2,3.2v-10.2
	H-858.4z M-852,552.2c0.2-0.8,0-1.7-0.5-2.3c-0.5-0.6-1.2-1-2-1v14.8L-852,552.2z M-869.6,540.3v32.2h2.1v-17.3h10.1v17.3h2.1v-32.2
	H-869.6z M-847.6,541.5h9.7v-0.9h-9.7V541.5z M-839.9,537c-0.8-0.3-2.5-0.4-2.8-0.4c-0.3,0-2,0.1-2.8,0.4c-0.3,0.1-0.5,0.4-0.6,0.7
	c-0.1,0.2-0.2,0.5-0.3,0.7c-0.2,0.8-0.3,1.6-0.3,1.6l0.4,0.1c0,0,0.1-0.6,0.3-1.3c0-0.1,0.1-0.3,0.1-0.4c0.1-0.2,0.1-0.4,0.2-0.5
	c0.1-0.3,0.3-0.4,0.4-0.5c0.7-0.3,2.4-0.4,2.7-0.4c0.3,0,2,0.1,2.7,0.4c0.1,0,0.3,0.2,0.4,0.5c0.1,0.2,0.1,0.3,0.2,0.5
	c0.1,0.3,0.2,0.6,0.2,0.9c0.1,0.5,0.1,0.8,0.1,0.8l0.4-0.1c0,0-0.1-0.7-0.3-1.4c0-0.1-0.1-0.2-0.1-0.3c-0.1-0.3-0.2-0.5-0.3-0.7
	C-839.4,537.4-839.6,537.1-839.9,537 M-845.1,540.2h1.4v-1.4h-1.4V540.2z M-843.4,540.2h1.4v-1.4h-1.4V540.2z M-841.7,540.2h1.4
	v-1.4h-1.4V540.2z M-836,541.5h9.7v-0.9h-9.7V541.5z M-828.3,537c-0.8-0.3-2.5-0.4-2.8-0.4c-0.3,0-2,0.1-2.8,0.4
	c-0.3,0.1-0.5,0.4-0.6,0.7c-0.1,0.2-0.2,0.5-0.3,0.7c-0.2,0.8-0.3,1.6-0.3,1.6l0.4,0.1c0,0,0.1-0.6,0.3-1.3c0-0.1,0.1-0.3,0.1-0.4
	c0.1-0.2,0.1-0.4,0.2-0.5c0.1-0.3,0.3-0.4,0.4-0.5c0.7-0.3,2.4-0.4,2.7-0.4c0.3,0,2,0.1,2.7,0.4c0.1,0,0.3,0.2,0.4,0.5
	c0.1,0.2,0.1,0.3,0.2,0.5c0.1,0.3,0.2,0.6,0.2,0.9c0.1,0.5,0.1,0.8,0.1,0.8l0.4-0.1c0,0-0.1-0.7-0.3-1.4c0-0.1-0.1-0.2-0.1-0.3
	c-0.1-0.3-0.2-0.5-0.3-0.7C-827.9,537.4-828,537.1-828.3,537 M-833.6,540.2h1.4v-1.4h-1.4V540.2z M-831.8,540.2h1.4v-1.4h-1.4V540.2
	z M-830.1,540.2h1.4v-1.4h-1.4V540.2z M-825.1,541.5h9.7v-0.9h-9.7V541.5z M-823.7,537.7c-0.1,0.2-0.2,0.5-0.3,0.7
	c-0.2,0.8-0.3,1.6-0.3,1.6l0.4,0.1c0,0,0.1-0.6,0.3-1.3c0-0.1,0.1-0.3,0.1-0.4c0.1-0.2,0.1-0.4,0.2-0.5c0.1-0.3,0.3-0.4,0.4-0.5
	c0.1,0,0.1,0,0.2-0.1c0.8-0.2,2.2-0.3,2.5-0.3c0.3,0,2,0.1,2.7,0.4c0.1,0,0.3,0.2,0.4,0.5c0.2,0.4,0.3,1,0.4,1.4
	c0.1,0.5,0.1,0.8,0.1,0.8l0.4-0.1c0,0-0.1-0.7-0.3-1.4c-0.1-0.3-0.2-0.7-0.4-1c-0.1-0.3-0.3-0.6-0.6-0.7c-0.8-0.3-2.5-0.4-2.8-0.4
	c-0.3,0-1.6,0-2.5,0.3c-0.1,0-0.2,0.1-0.3,0.1C-823.4,537.1-823.6,537.4-823.7,537.7 M-822.7,540.2h1.4v-1.4h-1.4V540.2z
	 M-820.9,540.2h1.4v-1.4h-1.4V540.2z M-819.2,540.2h1.4v-1.4h-1.4V540.2z"/>
</svg>
