<?xml version="1.0" encoding="utf-8"?>
<!-- Generator: Adobe Illustrator 19.0.0, SVG Export Plug-In . SVG Version: 6.00 Build 0)  -->
<svg version="1.1" id="Layer_1" xmlns="http://www.w3.org/2000/svg" xmlns:xlink="http://www.w3.org/1999/xlink" x="0px" y="0px"
	 width="79px" height="100px" viewBox="-898.5 491 79 100" style="enable-background:new -898.5 491 79 100;" xml:space="preserve">
<path d="M-863.4,566.7l0.2,0.1l-8.5,23.5l-9.2-11.2l-14.5,3.4l9.9-27.2c0.1,0.2,0.3,0.4,0.4,0.5l3,5c1,1.7,3.2,2.9,5.3,2.9h6.1
	c0.9,0,2.6,0.4,3.4,0.9L-863.4,566.7z M-832.9,555.7l-3,5c-1,1.7-3.2,2.9-5.3,2.9h-6.1c-0.9,0-2.6,0.4-3.4,0.9l-3.9,2.2l-0.3,0.1
	l8.5,23.5l9.2-11.2l14.5,3.4l-9.9-27.2C-832.6,555.4-832.8,555.6-832.9,555.7 M-845.4,526c1.2-1.1,0.8-2.2-0.8-2.4l-7.9-1.1
	l-3.5-6.8c-0.7-1.4-2-1.4-2.7,0l-3.5,6.8l-7.9,1.1c-1.7,0.2-2,1.3-0.8,2.4l5.7,5.3l-1.3,7.5c-0.3,1.6,0.7,2.3,2.2,1.5l7-3.5l7,3.5
	c1.5,0.7,2.5,0.1,2.2-1.5l-1.3-7.5L-845.4,526 M-859,506.4c12.8,0,23.2,9.9,23.2,22.1c0,12.2-10.4,22.1-23.2,22.1
	s-23.2-9.9-23.2-22.1C-882.2,516.3-871.8,506.4-859,506.4 M-859,556c16,0,29-12.4,29-27.6c0-15.2-13-27.6-29-27.6s-29,12.4-29,27.6
	C-888,543.7-875,556-859,556 M-820.5,526.9c0.5,0.8,0.5,2.3,0,3.1l-3,5c-0.7,1.2-1.3,3.2-1.3,4.6v5.8c0,1-0.8,2.2-1.6,2.7l-5.3,2.9
	c-0.7,0.4-1.5,1-2.3,1.8c-0.4,0.4-0.9,1-1.3,1.6l-3,5c-0.5,0.8-1.8,1.6-2.8,1.6h-6.1c-1.5,0-3.6,0.5-4.8,1.2l-5.3,2.9
	c-0.8,0.5-2.4,0.5-3.3,0l-5.3-2.9c-1.3-0.7-3.4-1.2-4.8-1.2h-6.1c-1,0-2.3-0.7-2.8-1.6l-3-5c-0.4-0.6-0.9-1.2-1.3-1.6
	c-0.7-0.8-1.6-1.4-2.3-1.8l-5.3-2.9c-0.9-0.5-1.6-1.7-1.6-2.7v-5.8c0-1.4-0.6-3.4-1.3-4.6l-3-5c-0.5-0.8-0.5-2.3,0-3.1l3-5
	c0.7-1.2,1.3-3.2,1.3-4.6v-5.8c0-1,0.8-2.2,1.6-2.7l5.3-2.9c1.3-0.7,2.8-2.2,3.5-3.4l3-5c0.5-0.8,1.8-1.6,2.8-1.6h6.1
	c1.5,0,3.6-0.5,4.8-1.2l5.3-2.9c0.8-0.5,2.4-0.5,3.3,0l5.3,2.9c1.3,0.7,3.4,1.2,4.8,1.2h6.1c1,0,2.3,0.7,2.8,1.6l3,5
	c0.7,1.2,2.3,2.7,3.5,3.4l5.3,2.9c0.9,0.5,1.6,1.7,1.6,2.7v5.8c0,1.4,0.6,3.4,1.3,4.6L-820.5,526.9"/>
</svg>
