<?xml version="1.0" encoding="utf-8"?>
<!-- Generator: Adobe Illustrator 19.0.0, SVG Export Plug-In . SVG Version: 6.00 Build 0)  -->
<svg version="1.1" id="Layer_1" xmlns="http://www.w3.org/2000/svg" xmlns:xlink="http://www.w3.org/1999/xlink" x="0px" y="0px"
	 width="100px" height="79.9px" viewBox="-909 502.3 100 79.9" style="enable-background:new -909 502.3 100 79.9;"
	 xml:space="preserve">
<path d="M-809.3,551.9v27.2c0,0.7-0.3,1.4-0.8,2c-0.5,0.5-1.3,0.8-2,0.8H-906c-0.7,0-1.4-0.3-2-0.8c-0.5-0.5-0.8-1.3-0.8-2v-27.2
	c0-0.7,0.3-1.4,0.8-2c0.5-0.5,1.3-0.8,2-0.8h37.3c-0.1-0.2-0.3-0.4-0.3-0.7l-1.3-3.9c-0.1-0.4,0.2-0.7,0.6-0.6
	c20.8,2.5,7.7-2.2,3.5-7.7c-5.6-7.2,7.7-19.6,13.8-22.6c-0.2-0.5-0.4-1-0.6-1.6c0-0.2-0.1-0.3-0.1-0.5c0-0.1,0-0.1,0-0.2
	c0-0.3-0.1-0.6-0.1-0.9c-0.1-4.1,3.1-7.6,7.3-7.7c3-0.1,5.7,1.6,6.9,4.2c0.5,0.9,0.8,2,0.8,3.1c0,1-0.2,2-0.5,3
	c-1,2.8-3.7,4.8-6.8,4.9c-1,0-1.9-0.1-2.7-0.4c-0.2,1.3-0.5,2.7-0.3,4.2c0.8,6.9,6.6,7.3,10.5,8.1c0.4,0.1,1,0.4,1.1,1.1
	c0,0.8,0.1,3.1,0.1,3.1s-0.1,0.8-1.1,0.7c-4.9-0.6-8.7-0.8-13.9-6.2c-2.1-2.2-6.4,3.3-2.8,8.4c2.7,3.8,6.7,10.8,1.7,12.3
	c-0.2,0.1-0.4,0.1-0.5,0.1h4c0.7,0,1,0.3,1.1,0.9c0.8,4.2,3.9,8,8,8c4.1,0,7.5-3.8,8-8.1c0-0.3,0.1-0.8,1.2-0.8h19.2
	c0.7,0,1.4,0.3,2,0.8C-809.6,550.5-809.3,551.2-809.3,551.9z M-840.1,551c-0.2,0.5-0.1,1.2,0.3,1.3c0.4,0.1,0.9-0.4,1.1-0.8
	c0.2-0.5,0-0.9-0.4-1.1C-839.5,550.3-839.9,550.6-840.1,551 M-843.3,547.4c0.2,0.5,0.7,0.9,1.1,0.8c0.4-0.2,0.4-0.9,0.2-1.3
	c-0.2-0.4-0.6-0.7-1-0.5C-843.3,546.4-843.5,546.9-843.3,547.4 M-841,542.4c0,0.5,0.4,1.1,0.8,1.1c0.4,0,0.7-0.7,0.7-1.2
	c0-0.5-0.4-0.9-0.8-0.9C-840.8,541.5-841.1,541.9-841,542.4"/>
</svg>
